HIERARCHY
ROOT Hips
{
 OFFSET 0.000000 0.000000 0.000000
 CHANNELS 6 Xposition Yposition Zposition Yrotation Xrotation Zrotation
 JOINT Chest
 {
  OFFSET 0.000000 9.585900 0.002600
  CHANNELS 3 Yrotation Xrotation Zrotation
  JOINT Chest2
  {
   OFFSET 0.000000 9.601200 -0.005300
   CHANNELS 3 Yrotation Xrotation Zrotation
   JOINT Chest3
   {
    OFFSET 0.000000 9.561800 0.000000
    CHANNELS 3 Yrotation Xrotation Zrotation
    JOINT Chest4
    {
     OFFSET 0.000000 9.552100 0.000000
     CHANNELS 3 Yrotation Xrotation Zrotation
     JOINT Neck
     {
      OFFSET 0.000000 14.453000 0.000000
      CHANNELS 3 Yrotation Xrotation Zrotation
      JOINT Head
      {
       OFFSET 0.000000 8.936500 -0.011300
       CHANNELS 3 Yrotation Xrotation Zrotation
       End Site
       {
        OFFSET 0.000000 17.073600 -0.006000
       }
      }
     }
     JOINT RightCollar
     {
      OFFSET -2.921100 9.558500 0.000000
      CHANNELS 3 Yrotation Xrotation Zrotation
      JOINT RightShoulder
      {
       OFFSET -13.519700 0.000000 0.000000
       CHANNELS 3 Yrotation Xrotation Zrotation
       JOINT RightElbow
       {
        OFFSET 0.000000 -29.696600 0.000000
        CHANNELS 3 Yrotation Xrotation Zrotation
        JOINT RightWrist
        {
         OFFSET 0.000000 -24.004700 0.000000
         CHANNELS 3 Yrotation Xrotation Zrotation
         End Site
         {
          OFFSET 0.000000 -17.728500 0.000000
         }
        }
       }
      }
     }
     JOINT LeftCollar
     {
      OFFSET 2.921100 9.558500 0.000000
      CHANNELS 3 Yrotation Xrotation Zrotation
      JOINT LeftShoulder
      {
       OFFSET 13.519700 0.000000 0.000000
       CHANNELS 3 Yrotation Xrotation Zrotation
       JOINT LeftElbow
       {
        OFFSET 0.000000 -29.696600 0.000000
        CHANNELS 3 Yrotation Xrotation Zrotation
        JOINT LeftWrist
        {
         OFFSET 0.000000 -24.004700 0.000000
         CHANNELS 3 Yrotation Xrotation Zrotation
         End Site
         {
          OFFSET 0.000000 -17.728500 0.000000
         }
        }
       }
      }
     }
    }
   }
  }
 }
 JOINT RightHip
 {
  OFFSET -7.771700 -0.012900 -0.001300
  CHANNELS 3 Yrotation Xrotation Zrotation
  JOINT RightKnee
  {
   OFFSET 0.000000 -40.869800 0.001200
   CHANNELS 3 Yrotation Xrotation Zrotation
   JOINT RightAnkle
   {
    OFFSET 0.000000 -39.717900 0.002100
    CHANNELS 3 Yrotation Xrotation Zrotation
    JOINT RightToe
    {
     OFFSET 0.000000 -4.965400 11.033500
     CHANNELS 3 Yrotation Xrotation Zrotation
     End Site
     {
      OFFSET 0.000000 -1.423100 5.872300
     }
    }
   }
  }
 }
 JOINT LeftHip
 {
  OFFSET 7.771700 -0.012900 -0.001300
  CHANNELS 3 Yrotation Xrotation Zrotation
  JOINT LeftKnee
  {
   OFFSET 0.000000 -40.869800 0.001200
   CHANNELS 3 Yrotation Xrotation Zrotation
   JOINT LeftAnkle
   {
    OFFSET 0.000000 -39.717900 0.002100
    CHANNELS 3 Yrotation Xrotation Zrotation
    JOINT LeftToe
    {
     OFFSET 0.000000 -4.965400 11.033500
     CHANNELS 3 Yrotation Xrotation Zrotation
     End Site
     {
      OFFSET 0.000000 -1.423100 5.872300
     }
    }
   }
  }
 }
}
MOTION
Frames: 15
Frame Time: 0.008333
-66.734587 48.458061 16.280587 179.543222 -39.286604 -9.525586 0.542945 12.199468 0.664527 0.080354 7.007904 0.750389 0.112173 8.756964 0.942528 0.078539 7.011182 0.750120 0.213225 23.136727 0.774475 0.173402 7.157162 1.340068 8.824657 2.540010 -2.462400 5.960655 -21.088304 -7.341629 40.194236 -42.148972 -20.260268 12.565436 6.225499 -32.799439 -4.572728 -0.047095 -3.345474 3.070348 -21.242162 -2.463407 -67.464957 -34.112701 38.815871 -11.808407 12.133964 33.302237 15.865136 -43.885241 -13.699490 -95.981387 64.164708 -87.958502 0.629704 2.367521 2.955490 0.066437 -0.783240 0.045592 -9.363408 -46.489991 18.603546 100.765119 83.564395 99.059779 -6.876769 -7.118366 0.691507 0.247449 0.665087 0.117744
-66.735407 48.458181 16.280339 179.534632 -39.277390 -9.513480 0.546200 12.194157 0.656485 0.081226 7.005324 0.751004 0.116209 8.768148 0.936029 0.079806 7.004130 0.753743 0.213029 23.134996 0.778936 0.177972 7.155416 1.351309 8.821049 2.533951 -2.460689 5.980699 -21.074813 -7.358282 40.183138 -42.150729 -20.254436 12.560478 6.212713 -32.808238 -4.564994 -0.054130 -3.353531 3.067262 -21.241298 -2.457026 -67.453273 -34.125987 38.815153 -11.809805 12.128942 33.301217 15.873967 -43.888529 -13.709255 -95.965404 64.164675 -87.944110 0.631958 2.356303 2.953886 0.063813 -0.772125 0.045668 -9.355385 -46.498404 18.592623 100.733551 83.557986 99.031075 -6.886403 -7.121053 0.690390 0.261265 0.667860 0.114670
-66.735510 48.458529 16.280428 179.525019 -39.266930 -9.505240 0.550664 12.187262 0.652459 0.082127 7.009321 0.748390 0.117320 8.761471 0.938875 0.083701 7.013516 0.743879 0.214780 23.125600 0.791242 0.181438 7.151948 1.371374 8.818629 2.523459 -2.453034 5.980979 -21.075867 -7.358996 40.183435 -42.146381 -20.249470 12.560111 6.211077 -32.809680 -4.556406 -0.056716 -3.348484 3.099484 -21.240397 -2.475924 -67.485890 -34.137038 38.825139 -11.804726 12.134995 33.298758 15.878289 -43.895298 -13.712779 -95.948849 64.168943 -87.930483 0.633092 2.347840 2.953136 0.058741 -0.766228 0.043197 -9.351858 -46.507076 18.586106 100.700203 83.551669 98.998055 -6.870491 -7.126178 0.690598 0.250567 0.672678 0.109785
-66.735085 48.459129 16.280743 179.518744 -39.255373 -9.502255 0.553878 12.184020 0.653539 0.083120 7.008238 0.746578 0.118480 8.760198 0.936674 0.083066 7.008243 0.746655 0.215342 23.125485 0.792626 0.178449 7.143609 1.383268 8.820255 2.531100 -2.452535 5.990089 -21.076311 -7.369588 40.172678 -42.154065 -20.247947 12.564049 6.215276 -32.804789 -4.541129 -0.044374 -3.368733 3.081430 -21.252962 -2.457219 -67.450167 -34.167708 38.823272 -11.796340 12.141345 33.306555 15.880602 -43.905998 -13.711925 -95.943641 64.174338 -87.925612 0.623249 2.341717 2.948465 0.062211 -0.765196 0.043479 -9.353738 -46.517724 18.585763 100.683255 83.560319 98.989241 -6.866964 -7.125365 0.682279 0.260186 0.673302 0.109820
-66.734549 48.460729 16.280158 179.519505 -39.250404 -9.504061 0.552926 12.189240 0.656785 0.084052 7.007351 0.743941 0.125655 8.765584 0.931547 0.078459 7.000743 0.746722 0.218522 23.122246 0.799878 0.170875 7.128984 1.397474 8.821534 2.536220 -2.450001 5.991513 -21.075160 -7.373465 40.171413 -42.168115 -20.242546 12.558049 6.219099 -32.808255 -4.534523 -0.040782 -3.372867 3.095027 -21.254838 -2.458303 -67.461200 -34.180265 38.830428 -11.790875 12.140818 33.311976 15.872040 -43.908537 -13.703208 -95.935831 64.179640 -87.919753 0.607867 2.333439 2.942893 0.072410 -0.770979 0.041789 -9.359196 -46.520359 18.584957 100.658502 83.560394 98.967939 -6.863619 -7.124238 0.679039 0.256020 0.673037 0.108525
-66.732837 48.462603 16.279695 179.515972 -39.245999 -9.509758 0.558248 12.192943 0.665508 0.092535 7.015731 0.743390 0.124203 8.757302 0.930479 0.081662 7.000526 0.745807 0.213359 23.113995 0.806646 0.162158 7.114007 1.411456 8.811812 2.532024 -2.447212 5.987249 -21.075217 -7.372780 40.177254 -42.168996 -20.241351 12.551688 6.215183 -32.803012 -4.535400 -0.036754 -3.377761 3.105420 -21.259703 -2.457306 -67.471880 -34.194421 38.835956 -11.798698 12.140672 33.310581 15.861177 -43.910542 -13.689147 -95.924892 64.185485 -87.909602 0.606936 2.322925 2.943119 0.068882 -0.770063 0.038693 -9.375920 -46.520999 18.591337 100.627705 83.553250 98.952583 -6.874808 -7.124722 0.653080 0.263174 0.673018 0.114640
-66.734310 48.463038 16.280203 179.507950 -39.231191 -9.492832 0.564889 12.194165 0.659480 0.091282 7.007356 0.739440 0.121617 8.751093 0.929169 0.089003 7.007667 0.741023 0.210569 23.103366 0.815054 0.155036 7.102429 1.421429 8.802530 2.529992 -2.443599 5.985882 -21.082038 -7.371891 40.173800 -42.166128 -20.225131 12.550463 6.212400 -32.810329 -4.537656 -0.035062 -3.378611 3.132329 -21.253972 -2.473208 -67.511915 -34.197214 38.856359 -11.796256 12.142414 33.312905 15.876887 -43.919368 -13.710559 -95.927446 64.192243 -87.909287 0.597552 2.300794 2.939848 0.074380 -0.759952 0.037858 -9.375812 -46.533219 18.570597 100.573327 83.541180 98.899016 -6.863465 -7.124243 0.646374 0.257816 0.674078 0.110604
-66.733659 48.464819 16.279593 179.502805 -39.225814 -9.489994 0.568924 12.192657 0.661856 0.092387 7.007166 0.738631 0.126088 8.754200 0.926170 0.099701 7.016462 0.738107 0.199574 23.085837 0.824729 0.151971 7.098829 1.424423 8.785999 2.531645 -2.439671 5.979244 -21.092405 -7.375969 40.167372 -42.167440 -20.186905 12.551586 6.207159 -32.842373 -4.552357 -0.047126 -3.372004 3.139878 -21.252734 -2.480658 -67.521304 -34.200849 38.864325 -11.770089 12.144458 33.330173 15.879809 -43.923822 -13.712539 -95.936763 64.195358 -87.914439 0.593113 2.291174 2.938027 0.078276 -0.763306 0.035916 -9.379119 -46.537547 18.570049 100.573079 83.543530 98.906319 -6.872749 -7.121795 0.645745 0.260353 0.670674 0.106693
-66.733973 48.466562 16.278677 179.496125 -39.221202 -9.479921 0.573075 12.192106 0.658784 0.093460 7.006972 0.737863 0.133574 8.769160 0.925384 0.094800 7.007713 0.736361 0.198838 23.073620 0.829241 0.147094 7.077348 1.435824 8.780332 2.528468 -2.438874 5.965937 -21.093144 -7.376423 40.177091 -42.172967 -20.170594 12.549351 6.200569 -32.851737 -4.555634 -0.044948 -3.377894 3.137549 -21.264357 -2.474823 -67.521600 -34.208810 38.869748 -11.769504 12.150667 33.326820 15.884358 -43.922257 -13.723195 -95.925949 64.200635 -87.904110 0.601694 2.282820 2.942581 0.071616 -0.764363 0.030693 -9.390170 -46.539788 18.558962 100.580795 83.533853 98.913755 -6.851907 -7.117031 0.637077 0.254306 0.663598 0.101148
-66.728075 48.468825 16.278717 179.496018 -39.212898 -9.511517 0.577180 12.193076 0.694109 0.095837 7.016536 0.736189 0.133993 8.760958 0.921822 0.095682 7.008946 0.734581 0.199897 23.060001 0.835689 0.142590 7.054731 1.443683 8.777882 2.526367 -2.440243 5.957905 -21.093576 -7.379426 40.182645 -42.180403 -20.155376 12.542623 6.193255 -32.863314 -4.556150 -0.046867 -3.385887 3.142120 -21.268239 -2.471268 -67.535296 -34.214137 38.886492 -11.771413 12.156156 33.317705 15.840142 -43.931049 -13.679691 -95.900635 64.206022 -87.883380 0.634114 2.213064 2.957340 0.038708 -0.701042 0.015191 -9.430775 -46.541402 18.601776 100.574700 83.530066 98.912270 -6.805139 -7.065994 0.645003 0.218699 0.611571 0.081268
-66.726378 48.470289 16.278409 179.488742 -39.203526 -9.513037 0.582566 12.190547 0.701770 0.096552 7.017226 0.734544 0.134482 8.759889 0.919879 0.097913 7.012043 0.733584 0.195158 23.048718 0.839144 0.136858 7.027101 1.452244 8.777361 2.528734 -2.443939 5.948173 -21.077625 -7.388712 40.195327 -42.205215 -20.154792 12.532370 6.191637 -32.875526 -4.556564 -0.045795 -3.390912 3.156451 -21.265889 -2.476507 -67.562650 -34.219612 38.906645 -11.776343 12.160139 33.313316 15.831713 -43.938996 -13.674681 -95.897062 64.208123 -87.870025 0.627120 2.204028 2.939317 0.049771 -0.699344 0.019412 -9.436393 -46.549746 18.612041 100.572537 83.528679 98.912539 -6.803068 -7.063534 0.643078 0.208660 0.609581 0.082199
-66.726570 48.471244 16.277954 179.480833 -39.192594 -9.502726 0.585429 12.186009 0.697625 0.096779 7.018435 0.733438 0.134879 8.753660 0.918715 0.102097 7.019753 0.733385 0.190024 23.030048 0.841530 0.123238 6.975037 1.466207 8.775405 2.524445 -2.445955 5.947575 -21.070578 -7.392371 40.203984 -42.210712 -20.154714 12.528281 6.194938 -32.879689 -4.557863 -0.044891 -3.402185 3.150936 -21.275030 -2.464909 -67.564599 -34.221187 38.911360 -11.774004 12.155108 33.309872 15.835677 -43.945260 -13.686806 -95.884999 64.214224 -87.859105 0.633420 2.201155 2.939883 0.043355 -0.703976 0.016880 -9.429721 -46.560780 18.593747 100.518410 83.522996 98.868485 -6.785857 -7.056954 0.632741 0.209151 0.606194 0.082785
-66.726207 48.472557 16.276850 179.475923 -39.185420 -9.497684 0.581287 12.194734 0.695505 0.101938 7.008668 0.732502 0.140028 8.755885 0.919903 0.100905 7.022393 0.731106 0.187927 23.016772 0.843902 0.119120 6.961954 1.469005 8.776548 2.520010 -2.447292 5.944314 -21.071728 -7.393194 40.211705 -42.209567 -20.151589 12.523642 6.194548 -32.883952 -4.559282 -0.047004 -3.413123 3.151465 -21.279560 -2.463368 -67.577940 -34.215321 38.924939 -11.787121 12.148542 33.298578 15.835381 -43.948273 -13.693485 -95.890744 64.219591 -87.859886 0.631896 2.183795 2.935675 0.043776 -0.701165 0.015813 -9.427585 -46.568502 18.577557 100.485087 83.518481 98.853165 -6.780940 -7.048800 0.620616 0.209572 0.601612 0.081063
-66.725439 48.474066 16.275140 179.469686 -39.181649 -9.494281 0.583065 12.194746 0.695738 0.103736 7.006402 0.732311 0.139725 8.776318 0.917819 0.103243 7.012087 0.731554 0.186720 23.003213 0.844946 0.115378 6.948660 1.471570 8.777873 2.524179 -2.448838 5.942344 -21.082780 -7.393588 40.216333 -42.209856 -20.152591 12.530618 6.195091 -32.887829 -4.558902 -0.051066 -3.417584 3.160623 -21.279197 -2.476768 -67.600936 -34.204574 38.943114 -11.800665 12.144932 33.287728 15.836805 -43.948911 -13.696820 -95.901223 64.221163 -87.860102 0.623599 2.167809 2.927495 0.052651 -0.700060 0.016255 -9.425127 -46.572444 18.565734 100.475380 83.506682 98.854466 -6.769580 -7.046707 0.613801 0.198682 0.597685 0.076944
-66.725378 48.475040 16.273324 179.456481 -39.176675 -9.482295 0.589248 12.193414 0.691082 0.102853 7.012321 0.731524 0.141794 8.776918 0.918224 0.105069 7.006648 0.731352 0.182236 22.996151 0.845787 0.108936 6.923424 1.475445 8.778551 2.522826 -2.449811 5.949583 -21.079946 -7.394685 40.213731 -42.209231 -20.156172 12.547626 6.195968 -32.883618 -4.554945 -0.042837 -3.420510 3.155789 -21.292786 -2.476122 -67.608711 -34.205160 38.952620 -11.809117 12.149587 33.272708 15.849040 -43.950790 -13.706805 -95.897370 64.224814 -87.854597 0.624580 2.163158 2.935551 0.051535 -0.703865 0.010107 -9.416867 -46.577137 18.554117 100.476371 83.494971 98.860184 -6.764171 -7.048209 0.609490 0.196459 0.597787 0.076977
